<?xml version="1.0" encoding="UTF-8" standalone="no"?>
<!DOCTYPE svg PUBLIC "-//W3C//DTD SVG 1.1//EN" "http://www.w3.org/Graphics/SVG/1.1/DTD/svg11.dtd">
<svg xmlns="http://www.w3.org/2000/svg" version="1.1" viewBox="0 0 289 480" width="216.75" height="360">
  <defs>
    <marker orient="auto" overflow="visible" markerUnits="strokeWidth" id="StickArrow_Marker" viewBox="-1 -3 7 6" markerWidth="7" markerHeight="6">
      <path d="M 4.8 0 L 0 0 M 0 -1.8 L 4.8 0 L 0 1.8" fill="none" stroke="currentColor" stroke-width="1"/>
    </marker>
    <marker orient="auto" overflow="visible" markerUnits="strokeWidth" id="Ball_Marker" viewBox="-5 -3 6 6" markerWidth="6" markerHeight="6">
      <circle cx="-1.8" cy="0" r="1.8" fill="none" stroke="currentColor" stroke-width="1"/>
    </marker>
  </defs>

  <g fill="none" fill-opacity="1" stroke-linejoin="round">
    <!-- Background boxes -->
    <g stroke="gray" stroke-width="1" fill="aliceblue">
      <rect x="35" y="25" width="175" height="105"/>
      <rect x="35" y="135" width="210" height="345"/>
    </g>
    <g fill="gray">
      <text x="48" y="42">Section array</text>
      <text x="48" y="152">Section contents</text>
    </g>

    <!-- Section array box -->
    <g transform="translate(48,50)" text-anchor="middle" stroke-width="1">
      <g stroke="black" fill="white">
        <rect y="0"  width="104" height="24"/>
        <rect y="24" width="104" height="24"/>
        <rect y="48" width="104" height="24"/>
      </g>
      <g transform="translate(52,12)" fill="black" alignment-baseline="central">
        <text y="0" dominant-baseline="central">bitmap</text>
        <text y="24" dominant-baseline="central">offset<tspan baseline-shift="sub" font-size="75%">0</tspan></text>
        <text y="48" dominant-baseline="central">offset<tspan baseline-shift="sub" font-size="75%">1</tspan></text>
      </g>
    </g>

    <!-- first section -->
    <g transform="translate(48,160)" text-anchor="middle" stroke-width="1">
      <g stroke="black" fill="white">
        <rect y="0" width="104" height="24"/>
        <rect y="24" width="104" height="24"/>
        <rect y="48" width="104" height="24"/>

        <rect y="72" width="184" height="24"/>
        <rect y="96" width="184" height="24"/>
        <rect y="120" width="184" height="24"/>
      </g>
      <g transform="translate(52,12)" fill="black">
        <text y="0" dominant-baseline="central">DataSize</text>
        <text y="24" dominant-baseline="central">NumIfixups</text>
        <text y="48" dominant-baseline="central">NumXfixups</text>
      </g>
      <g transform="translate(92,12)" fill="black">
        <text y="72" dominant-baseline="central">Data</text>
        <text y="96" dominant-baseline="central">Ifixups</text>
        <text y="120" dominant-baseline="central">Xfixups</text>
      </g>
    </g>

    <!-- second section -->
    <g transform="translate(48,320)" text-anchor="middle" stroke-width="1">
      <g stroke="black" fill="white">
        <rect y="0" width="104" height="24"/>
        <rect y="24" width="104" height="24"/>
        <rect y="48" width="104" height="24"/>

        <rect y="72" width="184" height="24"/>
        <rect y="96" width="184" height="24"/>
        <rect y="120" width="184" height="24"/>
      </g>
      <g transform="translate(52,12)" fill="black">
        <text y="0" dominant-baseline="central">DataSize</text>
        <text y="24" dominant-baseline="central">NumIfixups</text>
        <text y="48" dominant-baseline="central">NumXfixups</text>
      </g>
      <g transform="translate(92,12)" fill="black">
        <text y="72" dominant-baseline="central">Data</text>
        <text y="96" dominant-baseline="central">Ifixups</text>
        <text y="120" dominant-baseline="central">Xfixups</text>
      </g>
    </g>

    <g stroke="black" stroke-width="2" marker-start="url(#Ball_Marker)" marker-end="url(#StickArrow_Marker)">
      <!-- line from offset #0 to first section array -->
      <path d="M 40 86  H 16  V 160  H 35"/>
      <!-- line from offset #1 to second section array -->
      <path d="M 40 110  H 26  V 155  A 3 5, 0, 0, 0, 26 165  V 320  H 35"/>
    </g>
  </g>
</svg>
