<?xml version="1.0" encoding="UTF-8" standalone="no"?>
<!DOCTYPE svg PUBLIC "-//W3C//DTD SVG 1.1//EN" "http://www.w3.org/Graphics/SVG/1.1/DTD/svg11.dtd">
<svg xmlns:dc="http://purl.org/dc/elements/1.1/" xmlns:xl="http://www.w3.org/1999/xlink" version="1.1" xmlns="http://www.w3.org/2000/svg" viewBox="19 23 767 411" width="767" height="411">
  <defs/>
  <metadata> Produced by OmniGraffle 7.7.1 
    <dc:date>2018-03-08 15:37:29 +0000</dc:date>
  </metadata>
  <g id="Canvas_1" fill-opacity="1" stroke-dasharray="none" stroke="none" stroke-opacity="1" fill="none">
    <title>Canvas 1</title>
    <g id="Canvas_1: Layer 1">
      <title>Layer 1</title>
      <g id="Graphic_24">
        <path d="M 135.50379 315.5 C 135.50379 331.91675 130.37474 345.52078 120.1165 356.3125 C 109.85825 367.1042 96.7464 372.5 80.78056 372.5 C 71.60213 372.5 63.73502 370.58335 57.179 366.75 L 57.179 405.25 C 57.179 413.33337 58.143105 418.66665 60.07135 421.25 C 61.99959 423.83335 66.28022 425.58333 72.91337 426.5 C 74.14745 426.5 74.14745 433.5 72.91337 433.5 C 69.75106 433.5 24.01342 433.5 20.851103 433.5 C 19.617028 433.5 19.617028 426.5 20.851103 426.5 C 27.407125 425.58333 31.668476 423.83335 33.635283 421.25 C 35.60209 418.66665 36.58548 413.33337 36.58548 405.25 L 36.58548 294.5 C 36.58548 287.8333 35.79491 283.45834 34.213752 281.375 C 32.632594 279.29166 29.103964 277.91667 23.627757 277.25 C 22.393683 277.25 22.393683 271 23.627757 271 C 31.109336 269 54.09382 256 54.86512 256 C 57.02475 256 58.10455 256.66666 58.10455 258 L 57.179 273.75 C 61.42113 268.99998 66.31879 265.02085 71.87213 261.8125 C 77.42546 258.60415 82.16887 257 86.10248 257 C 101.29703 257 113.32908 262.3541 122.19899 273.0625 C 131.0689 283.7709 135.50379 297.91658 135.50379 315.5 Z M 112.24931 315.25 C 112.24931 301.33326 109.4534 290.4792 103.8615 282.6875 C 98.2696 274.8958 90.42177 271 80.317785 271 C 76.07565 271 72.23851 271.95832 68.80624 273.875 C 65.37397 275.79168 61.49826 279.3333 57.179 284.5 L 57.179 345.75 C 57.179 351.08336 59.37716 355.54165 63.77355 359.125 C 68.16994 362.70835 73.53038 364.5 79.85501 364.5 C 90.34464 364.5 98.36601 360.2292 103.91935 351.6875 C 109.47268 343.1458 112.24931 331.00008 112.24931 315.25 Z" fill="black"/>
      </g>
      <g id="Graphic_23">
        <path d="M 312.8235 276.25 L 276.8589 275.25 L 276.8589 335 C 276.8589 343.00004 278.1261 348.91665 280.66052 352.75 C 283.19495 356.58335 287.31837 358.5 293.0309 358.5 C 299.9503 358.5 306.0248 356.83335 311.25458 353.5 C 311.73733 353.5 313.14534 360.08333 312.34076 360.5 C 304.45586 367.83337 295.12285 371.5 284.34146 371.5 C 274.76694 371.5 267.3448 368.4792 262.07478 362.4375 C 256.80477 356.3958 254.1698 348.50005 254.1698 338.75 L 254.65255 278.25 C 254.65255 275.91665 253.68707 274.75 251.75607 274.75 L 242.5839 274.75 C 240.97473 274.75 240.89427 268.41667 242.34252 267.5 C 247.9746 264.16665 251.87675 261 254.04912 258 C 256.2215 255 257.30766 251.25002 257.30766 246.75 C 257.30766 231.4166 254.18995 219.50004 247.95445 211 C 241.71894 202.49996 232.7681 198.25 221.10167 198.25 C 210.4812 198.25 201.83208 201.66663 195.15405 208.5 C 188.47602 215.33337 185.13706 223.99995 185.13706 234.5 C 185.13706 240.83336 186.28357 245.9583 188.57663 249.875 C 190.86969 253.7917 194.75173 256.75 200.22289 258.75 C 205.69404 260.75 210.64214 261.75 215.06734 261.75 C 215.06734 266.6667 216.51558 285.625 216.51558 285.625 C 216.51558 286.875 209.9985 286.83334 209.75713 285.5 C 208.8721 279.49997 206.69975 274.62502 203.24005 270.875 C 199.78035 267.12498 195.51613 265.25 190.44727 265.25 C 177.8958 265.25 171.62016 270.9166 171.62016 282.25 C 171.62016 288.58336 176.2062 294.49997 185.37843 300 L 210.964 314.25 C 220.13623 320.58337 224.72227 327.99996 224.72227 336.5 C 224.72227 346.8334 220.84022 355.41663 213.076 362.25 C 205.3118 369.08337 195.9989 372.5 185.13706 372.5 C 181.83828 372.5 177.7752 372.04167 172.94771 371.125 C 162.0054 369.04166 156.01136 368 154.9654 368 C 154.32174 361.99997 152.83329 353.12506 150.5 341.375 C 150.5 340.125 157.21822 340.16666 157.62051 341.5 C 159.31013 347.58336 162.87035 352.93748 168.30128 357.5625 C 173.7322 362.18752 179.42453 364.5 185.37843 364.5 C 191.4128 364.5 196.05918 362.77085 199.31774 359.3125 C 202.5763 355.85415 204.20555 351.08336 204.20555 345 C 204.20555 338.41663 199.74019 332.70836 190.80933 327.875 C 186.6255 325.625 182.44175 323.375 178.25792 321.125 C 174.0741 318.875 169.93057 316.66668 165.8272 314.5 C 156.81589 307.99997 152.3103 299.5834 152.3103 289.25 C 152.3103 281.16663 155.38778 274.14586 161.54283 268.1875 C 167.69787 262.22914 175.24071 258.66667 184.17157 257.5 C 181.9992 255 180.1688 251.75002 178.68033 247.75 C 177.19185 243.74998 176.44762 239.83335 176.44762 236 C 176.44762 221.49993 181.31527 209.70838 191.0507 200.625 C 200.78614 191.54162 213.05582 187 227.86012 187 C 242.3426 187 254.16976 192.12495 263.342 202.375 C 272.51422 212.62505 277.10026 225.6666 277.10026 241.5 L 277.10026 262.5 L 312.8235 262.5 C 314.9154 262.5 314.9154 276.25 312.8235 276.25 Z" fill="black"/>
      </g>
      <g id="Graphic_22">
        <path d="M 431.12887 315.5 C 431.12887 332.0834 426.1154 345.7291 416.0884 356.4375 C 406.06135 367.1459 393.07285 372.5 377.1225 372.5 C 361.17216 372.5 348.1643 367.12505 338.09855 356.375 C 328.0328 345.62495 323 332.0001 323 315.5 C 323 298.7499 328.0715 284.81256 338.2147 273.6875 C 348.35788 262.56244 361.327 257 377.1225 257 C 392.9954 257 405.96456 262.5416 416.0303 273.625 C 426.09607 284.7084 431.12887 298.6666 431.12887 315.5 Z M 407.7842 315.25 C 407.7842 299.99992 405.05486 287.81255 399.5961 278.6875 C 394.1374 269.56245 386.64626 265 377.1225 265 C 367.6762 265 360.2044 269.5833 354.70696 278.75 C 349.2095 287.9167 346.46083 300.08326 346.46083 315.25 C 346.46083 330.3334 349.1708 342.31246 354.5908 351.1875 C 360.01084 360.06254 367.52133 364.5 377.1225 364.5 C 386.7237 364.5 394.23417 360.1042 399.6542 351.3125 C 405.0742 342.5208 407.7842 330.50008 407.7842 315.25 Z" fill="black"/>
      </g>
      <g id="Graphic_21">
        <path d="M 525.25 269.5 C 525.25 272.83335 524.2292 275.66666 522.1875 278 C 520.1458 280.33334 517.6667 281.5 514.75 281.5 C 511.0833 281.5 507.45835 280.29168 503.875 277.875 C 501.04165 275.95832 498.58334 275 496.5 275 C 491.0833 275 485.5 278.16663 479.75 284.5 L 479.75 340.75 C 479.75 348.00004 481 353.0625 483.5 355.9375 C 486 358.8125 491.3333 360.79166 499.5 361.875 C 500.83334 362.04167 500.83334 368.75 499.5 368.75 C 496.0833 368.75 491.25003 368.5 485 368 C 478.0833 367.5 459.2917 367.5 453.375 368 C 448.04164 368.5 443.6667 368.75 440.25 368.75 C 438.91666 368.75 438.91666 362.04167 440.25 361.875 C 447.50004 360.95833 452.1458 359.25 454.1875 356.75 C 456.2292 354.25 457.25 348.9167 457.25 340.75 L 457.25 294.5 C 457.25 287.8333 456.39584 283.45834 454.6875 281.375 C 452.97916 279.29166 449.1667 277.91667 443.25 277.25 C 441.91666 277.25 441.91666 271 443.25 271 C 451.50004 268.91666 472.5833 259.33334 474.25 257.5 C 475.25 256.5 476.25 256 477.25 256 C 479.58334 256 480.75 256.66666 480.75 258 L 479.75 273.75 C 486.4167 267.5833 492.1458 263.25 496.9375 260.75 C 501.7292 258.25 506.5 257 511.25 257 C 515.08335 257 518.375 258.25 521.125 260.75 C 523.875 263.25 525.25 266.16665 525.25 269.5 Z" fill="black"/>
      </g>
      <g id="Graphic_20">
        <path d="M 618.5404 297.75 C 618.5404 300.08334 617.1686 301.25 614.42494 301.25 L 551.7783 301.25 C 551.321 305.75002 551.0924 310.41664 551.0924 315.25 C 551.0924 328.66673 554.0075 338.97913 559.83776 346.1875 C 565.66804 353.39587 573.9561 357 584.7021 357 C 590.1132 357 595.5623 355.4167 601.04965 352.25 C 606.537 349.0833 614.8822 339.875 614.8822 339.875 C 615.5681 339.875 617.8545 343.25 617.8545 344.5 C 617.8545 346.25 615.4157 349.8958 610.5381 355.4375 C 605.6605 360.9792 600.3638 365.2083 594.6478 368.125 C 588.93184 371.0417 582.9492 372.5 576.6998 372.5 C 562.98146 372.5 551.4354 367.00006 542.0612 356 C 532.687 344.99994 528 331.50008 528 315.5 C 528 299.1666 532.59176 285.3334 541.7754 274 C 550.95905 262.6666 562.6004 257 576.6998 257 C 588.51276 257 598.43934 261.22912 606.4798 269.6875 C 614.52025 278.14588 618.5404 287.49995 618.5404 297.75 Z M 597.7344 286.75 C 597.7344 280.49997 595.77196 275.31252 591.847 271.1875 C 587.92204 267.06248 582.873 265 576.6998 265 C 570.8314 265 565.74425 267.68747 561.4382 273.0625 C 557.1322 278.43753 554.2171 285.49996 552.69284 294.25 L 584.47344 293.25 C 589.27485 293.16667 592.6853 292.66667 594.705 291.75 C 596.7246 290.83333 597.7344 289.16668 597.7344 286.75 Z" fill="black"/>
      </g>
      <g id="Graphic_29">
        <path d="M 473.60964 84.2059 L 474.6963 83.14865 C 474.6127 83.09443 474.50124 82.93178 474.36193 82.66069 C 474.2226 82.3896 473.8047 81.84742 473.1081 81.03415 C 472.41154 80.22088 472.1608 79.33983 472.3558 78.39102 C 472.5787 77.4422 472.3419 76.994905 471.6453 77.04912 C 470.94875 77.13045 470.489 76.994905 470.2661 76.64249 L 469.97356 76.154525 L 474.0276 72.57614 C 475.45 73.22643 477.075 73.22643 478.33237 73.30808 C 479.5897 73.38973 479.7673 74.01291 480.54745 75.01595 C 481.29974 76.04609 481.7734 77.03557 481.96845 77.98438 C 482.19135 78.9332 482.6929 79.74647 483.47303 80.42419 C 484.2253 81.10192 484.3925 81.84742 483.97456 82.66069 C 483.5566 83.47396 483.34765 84.62609 483.34765 86.11709 C 483.34765 87.60808 483.9049 89.98012 485.0194 93.2332 C 486.1339 96.48628 487.34595 99.17008 488.6555 101.28458 C 489.9929 103.37197 492.4448 106.62505 496.01125 111.04382 C 499.5498 115.43548 501.3609 117.76686 501.4445 118.03795 C 501.5002 118.30904 506.822 125.38449 508.2151 127.47188 C 509.60825 129.58639 516.26743 137.04136 517.3262 138.0444 C 518.35714 139.07454 520.3075 141.10772 523.1774 144.14392 C 526.0194 147.20724 528.5549 149.61995 530.7839 151.38203 C 533.0129 153.14412 536.5654 155.44838 541.4414 158.29483 C 546.31736 161.14127 550.9147 163.31 555.2334 164.801 C 559.55214 166.29199 562.6867 167.30857 564.6371 167.85075 C 566.5875 168.39294 568.39855 169.03 570.0703 169.76194 C 571.7421 170.521 574.36116 172.73038 575.41995 173.95028 C 576.4509 175.17019 577.28675 176.29521 577.9276 177.32535 C 578.5406 178.32839 580.17054 179.5754 582.8175 181.0664 C 585.46445 182.5574 587.37305 183.39777 588.5433 183.58754 C 589.7414 183.8044 590.3822 184.04839 590.4658 184.31948 C 590.5215 184.59057 606.49215 183.4817 607.6 183.2 C 608.7079 182.91831 609.6551 181.37723 609.8 181.2 C 609.9449 181.02278 610.0829 180.49644 610 180.25144 C 609.91716 180.00643 600.13416 169.13843 600.07844 168.86734 C 599.99485 168.59625 599.7162 168.39294 599.24256 168.2574 C 598.741 168.12185 598.49026 167.91853 598.49026 167.64744 C 598.49026 167.37635 597.6544 166.9426 595.9826 166.3462 C 594.31086 165.7227 592.4719 164.8281 590.4658 163.66241 C 588.4318 162.52383 586.8994 161.68345 585.86846 161.14127 C 584.8097 160.5991 584.2803 160.19246 584.2803 159.92137 C 584.2803 159.65028 582.44135 158.837 578.7635 157.48156 C 578.7635 157.48156 573.5547 155.63974 573.20486 155.44838 C 572.85505 155.25703 572.03905 154.79599 572 154.2 C 571.96096 153.60402 572 154.2 572 154.2 C 572 154.2 571.9328 152.79599 572 152.4 C 572.0672 152.00402 572.4484 151.12411 572.5869 150.9754 C 572.7254 150.82668 573.9297 150.06161 574.4 150 C 574.87034 149.93839 580.2 151 580.2 151 C 584.34524 151.71122 588.8776 152.87303 593.05704 154.63511 C 597.23644 156.3972 600.9979 157.75265 604.3414 158.70146 C 607.68495 159.65028 610.5409 160.87018 612.9092 162.36118 C 615.27754 163.85218 617.1583 165.20763 618.5514 166.42753 C 619.94454 167.64744 624.0543 171.06317 624.1936 171.38848 C 624.3329 171.7409 628.4427 176.119 630.6717 178.01663 C 632.9007 179.91426 635.3387 181.74412 637.98564 183.5062 C 640.6326 185.2683 643.27956 186.69152 645.9265 187.77588 C 648.5735 188.86024 654.4943 190.82564 663.689 193.67209 C 672.8837 196.51853 695.8704 204.44792 695.8704 204.44792 C 695.8704 204.44792 697.4397 204.90453 697.6 205 C 697.7603 205.09547 697.8544 206.15606 697.809 206.42654 C 697.76355 206.69703 697.3187 206.93367 697.1821 207.0365 C 697.0454 207.13933 696.3856 207.6767 696.05786 207.74877 C 695.7301 207.82083 693.9897 207.90432 693.9897 207.90432 C 693.0145 208.03986 685.97914 208.03986 672.8837 207.90432 C 659.7882 207.76877 644.9513 208.51427 638.4036 208.51427 C 631.85585 208.51427 625.935 207.9721 620.6411 206.88773 L 611.4464 205.05787 L 611.53 206.07446 L 611.6554 207.09105 L 611.7808 207.17238 L 612.61665 207.98565 L 612.70024 208.10764 L 614.4556 209.61219 C 615.6537 210.64233 616.2945 211.29294 616.3781 211.56404 C 616.43384 211.83513 618.8997 213.48877 623.7757 216.52498 C 628.6516 219.5883 633.94555 222.40764 639.6574 224.983 C 645.36926 227.55835 651.4344 230.16393 655.6645 231.40783 C 659.8407 232.5985 661.62714 233.90186 667.1161 237.10072 C 672.6329 240.27248 676.7148 242.4683 679.36175 243.6882 C 682.0087 244.90812 684.6557 245.78916 687.3026 246.33134 C 689.9496 246.87352 692.6662 247.28016 695.4525 247.55125 C 698.2387 247.82234 700.46775 248.36452 702.1395 249.1778 C 703.8113 249.99106 705.483 251.1432 707.1548 252.6342 C 708.8266 254.12518 709.6903 254.91134 709.746 254.99267 L 709.8714 255.074 L 709.9968 257.10717 L 710.0804 259.14035 L 708.19965 259.34367 C 707.5031 259.34367 707.0851 259.11324 706.9458 258.6524 C 706.8065 258.16442 706.3886 257.89333 705.692 257.83912 L 704.64715 257.71713 L 704.5636 257.59514 L 704.4382 257.5138 L 704.3128 257.43248 L 704.2292 257.3105 L 703.8113 257.92044 L 709.8714 262.71874 C 712.5184 264.6706 732.5377 281.2071 734.8225 282.64386 C 737.1351 284.05353 739.30835 285.95116 741.3423 288.33675 C 743.34845 290.69524 744.6998 292.41666 745.39635 293.50102 C 746.0929 294.58538 747.2492 295.84595 748.8653 297.28273 C 750.4534 298.6924 760.0939 307.4215 760.6512 308.0179 C 761.2084 308.6414 762.5737 310.07818 764.747 312.32823 C 766.8924 314.55117 768.0069 315.7982 768.0905 316.06927 C 768.14625 316.34036 768.3134 316.4759 768.59205 316.4759 C 768.8707 316.4759 769.2886 316.9503 769.8459 317.89913 C 770.4031 318.84795 770.8211 319.32235 771.0997 319.32235 C 771.3783 319.32235 772.0052 320.06785 772.9804 321.55885 C 773.9556 323.04984 774.6104 323.8631 774.94475 323.99866 C 775.307 324.1342 775.5299 324.33752 775.61345 324.6086 C 775.6692 324.8797 776.2264 325.48965 777.2852 326.43847 C 778.3161 327.3873 779.6675 329.75932 781.3392 333.5546 C 783.011 337.34985 783.9862 339.78966 784.2648 340.874 C 784.54345 341.95838 785.7276 346.16027 785.7276 346.16027 L 784.6828 346.5669 L 784.5574 346.4856 L 783.6379 345.95696 L 782.802 345.55032 L 782.5931 345.347 L 782.3841 345.1437 L 781.96615 344.94037 C 781.6875 344.80482 781.1024 344.4253 780.2108 343.8018 C 779.2913 343.2054 774.4154 339.9252 774.3596 339.6541 C 774.276 339.38302 772.2421 337.9598 768.2577 335.38444 C 764.3012 332.8091 762.3229 331.38586 762.3229 331.11477 C 762.3229 330.8437 760.8184 329.69155 757.8092 327.65837 C 754.8279 325.6252 752.1252 323.8631 749.7011 322.3721 C 747.2492 320.88112 702.0281 292.24045 696.3719 289.31268 C 690.7437 286.412 685.7005 283.87732 681.2425 281.7086 C 676.78445 279.53988 668.56496 276.08348 656.584 271.3394 C 644.603 266.59533 634.2242 262.80007 625.4474 259.95362 C 616.6707 257.10717 608.03324 254.5996 599.5351 252.43087 C 591.037 250.26215 584.83754 248.70338 580.93676 247.75456 C 577.036 246.80575 571.95104 245.7214 565.6819 244.50148 C 559.4128 243.28158 551.6809 242.19722 542.48623 241.2484 C 533.29154 240.2996 528.4156 239.89295 527.8583 240.0285 C 527.30106 240.16404 522.7037 240.2996 514.0663 240.43513 C 505.42884 240.57068 499.64733 240.774 496.72175 241.04508 C 493.79616 241.31617 486.6215 242.94272 485.2284 243.4849 C 483.83525 244.02708 482.7486 244.93523 481.96845 246.20935 C 481.21616 247.51058 479.96233 248.59494 478.207 249.46243 L 475.61575 250.80433 L 474.77987 250.92632 L 473.944 251.00765 L 474.27834 249.78774 C 474.33407 249.51665 474.01365 249.354 473.3171 249.29978 C 472.6205 249.21845 472.24437 249.13712 472.18864 249.0558 C 472.10505 249.00158 472.1608 248.4594 472.3558 248.24253 C 472.5787 248.05276 472.89914 247.8901 473.3171 247.75456 C 473.735 247.61902 474.0833 247.48347 474.36193 247.34793 C 474.64056 247.21238 474.50124 247.1446 473.944 247.1446 C 473.38674 247.1446 472.8295 247.1446 472.27223 247.1446 C 471.715 247.1446 471.4642 246.9142 471.51994 246.45333 C 471.6035 245.96537 471.26917 245.65362 470.5169 245.51807 C 469.7367 245.38253 469.3745 245.1792 469.43023 244.90812 C 469.5138 244.63703 469.5974 244.47437 469.681 244.42016 C 469.7367 244.33883 470.1825 244.2304 471.0184 244.09485 C 471.8543 243.9593 472.9688 243.62044 474.36193 243.07826 C 475.75507 242.53608 476.73026 241.8177 477.2875 240.9231 C 477.84477 240.0556 478.611 239.37788 479.5862 238.88992 C 480.5614 238.42906 483.9049 236.0977 489.61676 231.8958 C 495.3286 227.6939 498.63034 224.87456 499.52195 223.43778 C 500.4414 222.02811 500.9708 220.3067 501.1101 218.27352 C 501.24944 216.24034 501.1798 215.02043 500.90115 214.6138 C 500.6225 214.20716 499.88416 213.5701 498.68607 212.70261 C 497.51584 211.80802 495.74655 211.29294 493.3782 211.1574 C 491.0099 211.02185 489.79787 210.91342 489.74214 210.8321 C 489.65855 210.77787 489.57497 210.72366 489.4914 210.66944 C 489.43565 210.5881 489.3799 210.50678 489.3242 210.42546 C 489.2406 210.37124 489.157 210.20858 489.07344 209.9375 C 489.0177 209.6664 489.12916 209.50375 489.4078 209.44953 C 489.6864 209.3682 489.8536 209.28688 489.9093 209.20555 C 489.9929 209.15133 490.10436 208.7176 490.24367 207.90432 C 490.383 207.09105 489.9929 206.30489 489.07344 205.54583 C 488.18183 204.8139 485.507 203.9735 481.049 203.0247 C 476.59095 202.07588 470.6701 201.60147 463.2865 201.60147 C 455.9029 201.60147 450.1214 201.87256 445.942 202.41474 C 441.76257 202.95692 439.99063 203.4271 436.95625 204.44792 C 433.9219 205.46875 430.33886 209.15133 430.06024 209.20555 C 429.7816 209.28688 429.43333 209.3682 429.0154 209.44953 C 428.59744 209.50375 428.3355 209.8425 428.47206 208.9209 C 428.6719 208 430.311 205.84403 430.3946 205.78982 C 430.4503 205.7085 431.5648 204.62413 431.6484 204.5699 C 431.70414 204.48858 431.52303 204.44792 431.1051 204.44792 C 430.68715 204.44792 430.33886 204.5157 430.06024 204.65124 C 429.7816 204.78678 429.22436 205.19342 428.8064 205.4645 C 428.38847 205.7356 428.0156 206.5625 427.6362 206.76574 C 427.3669 207.09575 426.50774 207.33503 426.0898 207.41636 C 425.67186 207.47057 425.49075 207.2266 425.5465 206.68441 C 425.63007 206.14223 425.71366 205.84403 425.79724 205.78982 C 425.85297 205.7085 426.65313 204.75768 427.05106 204.5699 C 427.3431 204.247 430.924 202.78072 430.9797 202.6994 C 431.0633 202.64517 431.3837 202.82138 431.52303 202.82138 C 431.66234 202.82138 431.94097 202.7536 432.3589 202.61806 C 432.77685 202.48252 433.12513 202.34697 433.40376 202.21143 C 433.6824 202.07588 433.79384 201.96745 433.7381 201.88612 C 433.6545 201.8319 433.26445 201.60147 432.9858 201.60147 C 432.7072 201.60147 430.2692 202.07588 429.85127 202.21143 C 429.43333 202.34697 427.62225 203.22801 426.9257 203.22801 C 426.2291 203.22801 425.92205 203.3331 425.8 203.2 C 425.63443 203.12327 425.71366 202.18432 425.79724 202.1301 C 425.85297 202.04877 427.52473 201.15417 427.469 201.07285 C 427.3854 201.01863 426.9257 200.24602 426.9257 199.5683 C 426.9257 198.89057 426.87434 198.5065 427.2 198.4 C 427.46553 198.20265 434.51827 197.3318 435.9114 196.92517 C 437.30454 196.51853 439.08775 195.32574 441.26104 193.34678 C 443.40647 191.39493 445.35686 188.95512 447.1122 186.02735 C 448.8397 183.12668 450.28856 180.09047 451.4588 176.91872 C 452.6569 173.71986 453.4649 170.42611 453.88285 167.03748 C 454.3008 163.64886 454.16147 159.8536 453.4649 155.6517 C 452.76834 151.4498 452.0439 148.5627 451.2916 146.99037 C 450.51146 145.44516 449.6756 143.89994 448.78397 142.35473 C 447.8645 140.7824 446.0813 137.82753 443.43433 133.49008 C 440.7874 129.15264 437.6946 124.57122 434.15605 119.74581 C 430.58963 114.94752 427.80336 111.23359 425.79724 108.60401 C 423.76327 105.94733 420.28043 102.20628 415.34873 97.38088 C 410.38917 92.58259 391.72116 77.808175 388.1826 75.42258 C 384.61617 73.0641 371.3396 64.091015 368.414 62.32893 C 365.48843 60.566844 361.6573 58.39812 356.92065 55.82277 C 352.184 53.24741 347.8374 50.83471 343.8809 48.58466 C 339.89654 46.36172 321.46536 36.10096 318.26115 34.47442 C 315.05694 32.84788 311.2258 31.289112 306.7678 29.798117 C 302.30975 28.30712 299.87177 27.49385 299.45383 27.358306 C 299.0359 27.22276 298.79905 27.114324 298.74333 27.032997 C 298.65974 26.97878 298.57615 26.92456 298.49256 26.870343 C 298.43684 26.789016 298.3811 26.70769 298.3254 26.626362 C 298.2418 26.572144 298.2 26.341718 298.2 25.935083 C 298.2 25.528447 298.2418 25.29802 298.3254 25.243803 C 298.3811 25.162476 298.5483 25.05404 298.8269 24.918495 C 299.10554 24.78295 302.51872 24.376314 309.06646 23.69859 C 315.6142 23.020864 330.2 23.351433 342.79426 26.219727 C 355.4217 29.121987 359.40043 29.825226 361.4344 30.692714 C 363.4405 31.58731 419.0266 51.485325 419.1102 51.756415 C 419.1659 52.027506 419.72317 52.501913 420.78196 53.17964 C 421.8129 53.857364 427.5526 57.17822 438.0011 63.1422 C 448.4496 69.10618 455.9029 73.37585 460.3609 75.95121 C 464.81896 78.52656 467.9814 80.38353 469.8482 81.52211 C 471.74284 82.6878 472.8295 83.40619 473.1081 83.67728 C 473.38674 83.94837 473.5539 84.12457 473.60964 84.2059 Z" fill="#999"/>
      </g>
    </g>
  </g>
</svg>
